<svg id="visual" viewBox="0 0 960 540" width="960" height="540" xmlns="http://www.w3.org/2000/svg" xmlns:xlink="http://www.w3.org/1999/xlink" version="1.1"><path d="M0 71L14.5 69.2C29 67.3 58 63.7 87.2 62.8C116.3 62 145.7 64 174.8 64C204 64 233 62 262 62.8C291 63.7 320 67.3 349 70.2C378 73 407 75 436.2 68.7C465.3 62.3 494.7 47.7 523.8 44C553 40.3 582 47.7 611 54C640 60.3 669 65.7 698 64.8C727 64 756 57 785.2 54.3C814.3 51.7 843.7 53.3 872.8 56.8C902 60.3 931 65.7 945.5 68.3L960 71L960 0L945.5 0C931 0 902 0 872.8 0C843.7 0 814.3 0 785.2 0C756 0 727 0 698 0C669 0 640 0 611 0C582 0 553 0 523.8 0C494.7 0 465.3 0 436.2 0C407 0 378 0 349 0C320 0 291 0 262 0C233 0 204 0 174.8 0C145.7 0 116.3 0 87.2 0C58 0 29 0 14.5 0L0 0Z" fill="#80efda"></path><path d="M0 212L14.5 213.7C29 215.3 58 218.7 87.2 206.8C116.3 195 145.7 168 174.8 161.8C204 155.7 233 170.3 262 175.8C291 181.3 320 177.7 349 188.3C378 199 407 224 436.2 230.3C465.3 236.7 494.7 224.3 523.8 219.8C553 215.3 582 218.7 611 207.8C640 197 669 172 698 168.5C727 165 756 183 785.2 201.8C814.3 220.7 843.7 240.3 872.8 244.8C902 249.3 931 238.7 945.5 233.3L960 228L960 69L945.5 66.3C931 63.7 902 58.3 872.8 54.8C843.7 51.3 814.3 49.7 785.2 52.3C756 55 727 62 698 62.8C669 63.7 640 58.3 611 52C582 45.7 553 38.3 523.8 42C494.7 45.7 465.3 60.3 436.2 66.7C407 73 378 71 349 68.2C320 65.3 291 61.7 262 60.8C233 60 204 62 174.8 62C145.7 62 116.3 60 87.2 60.8C58 61.7 29 65.3 14.5 67.2L0 69Z" fill="#5bebd0"></path><path d="M0 309L14.5 305.3C29 301.7 58 294.3 87.2 280.8C116.3 267.3 145.7 247.7 174.8 243.2C204 238.7 233 249.3 262 255.7C291 262 320 264 349 280.2C378 296.3 407 326.7 436.2 334.7C465.3 342.7 494.7 328.3 523.8 316.7C553 305 582 296 611 284.3C640 272.7 669 258.3 698 258.3C727 258.3 756 272.7 785.2 290.7C814.3 308.7 843.7 330.3 872.8 333C902 335.7 931 319.3 945.5 311.2L960 303L960 226L945.5 231.3C931 236.7 902 247.3 872.8 242.8C843.7 238.3 814.3 218.7 785.2 199.8C756 181 727 163 698 166.5C669 170 640 195 611 205.8C582 216.7 553 213.3 523.8 217.8C494.7 222.3 465.3 234.7 436.2 228.3C407 222 378 197 349 186.3C320 175.7 291 179.3 262 173.8C233 168.3 204 153.7 174.8 159.8C145.7 166 116.3 193 87.2 204.8C58 216.7 29 213.3 14.5 211.7L0 210Z" fill="#1ee7c6"></path><path d="M0 498L14.5 490.8C29 483.7 58 469.3 87.2 463.8C116.3 458.3 145.7 461.7 174.8 458.8C204 456 233 447 262 437.2C291 427.3 320 416.7 349 425.7C378 434.7 407 463.3 436.2 470.5C465.3 477.7 494.7 463.3 523.8 460.7C553 458 582 467 611 468C640 469 669 462 698 453C727 444 756 433 785.2 431.2C814.3 429.3 843.7 436.7 872.8 434.8C902 433 931 422 945.5 416.5L960 411L960 301L945.5 309.2C931 317.3 902 333.7 872.8 331C843.7 328.3 814.3 306.7 785.2 288.7C756 270.7 727 256.3 698 256.3C669 256.3 640 270.7 611 282.3C582 294 553 303 523.8 314.7C494.7 326.3 465.3 340.7 436.2 332.7C407 324.7 378 294.3 349 278.2C320 262 291 260 262 253.7C233 247.3 204 236.7 174.8 241.2C145.7 245.7 116.3 265.3 87.2 278.8C58 292.3 29 299.7 14.5 303.3L0 307Z" fill="#19c8ab"></path><path d="M0 541L14.5 541C29 541 58 541 87.2 541C116.3 541 145.7 541 174.8 541C204 541 233 541 262 541C291 541 320 541 349 541C378 541 407 541 436.2 541C465.3 541 494.7 541 523.8 541C553 541 582 541 611 541C640 541 669 541 698 541C727 541 756 541 785.2 541C814.3 541 843.7 541 872.8 541C902 541 931 541 945.5 541L960 541L960 409L945.5 414.5C931 420 902 431 872.8 432.8C843.7 434.7 814.3 427.3 785.2 429.2C756 431 727 442 698 451C669 460 640 467 611 466C582 465 553 456 523.8 458.7C494.7 461.3 465.3 475.7 436.2 468.5C407 461.3 378 432.7 349 423.7C320 414.7 291 425.3 262 435.2C233 445 204 454 174.8 456.8C145.7 459.7 116.3 456.3 87.2 461.8C58 467.3 29 481.7 14.5 488.8L0 496Z" fill="#15a991"></path></svg>