<svg id="visual" viewBox="0 0 960 540" width="960" height="540" xmlns="http://www.w3.org/2000/svg" xmlns:xlink="http://www.w3.org/1999/xlink" version="1.1"><rect x="0" y="0" width="960" height="540" fill="#6598bf"></rect><defs><linearGradient id="grad1_0" x1="43.8%" y1="0%" x2="100%" y2="100%"><stop offset="14.444444444444446%" stop-color="#cbfffa" stop-opacity="1"></stop><stop offset="85.55555555555554%" stop-color="#cbfffa" stop-opacity="1"></stop></linearGradient></defs><defs><linearGradient id="grad1_1" x1="43.8%" y1="0%" x2="100%" y2="100%"><stop offset="14.444444444444446%" stop-color="#cbfffa" stop-opacity="1"></stop><stop offset="85.55555555555554%" stop-color="#8dccde" stop-opacity="1"></stop></linearGradient></defs><defs><linearGradient id="grad1_2" x1="43.8%" y1="0%" x2="100%" y2="100%"><stop offset="14.444444444444446%" stop-color="#6598bf" stop-opacity="1"></stop><stop offset="85.55555555555554%" stop-color="#8dccde" stop-opacity="1"></stop></linearGradient></defs><defs><linearGradient id="grad2_0" x1="0%" y1="0%" x2="56.3%" y2="100%"><stop offset="14.444444444444446%" stop-color="#cbfffa" stop-opacity="1"></stop><stop offset="85.55555555555554%" stop-color="#cbfffa" stop-opacity="1"></stop></linearGradient></defs><defs><linearGradient id="grad2_1" x1="0%" y1="0%" x2="56.3%" y2="100%"><stop offset="14.444444444444446%" stop-color="#8dccde" stop-opacity="1"></stop><stop offset="85.55555555555554%" stop-color="#cbfffa" stop-opacity="1"></stop></linearGradient></defs><defs><linearGradient id="grad2_2" x1="0%" y1="0%" x2="56.3%" y2="100%"><stop offset="14.444444444444446%" stop-color="#8dccde" stop-opacity="1"></stop><stop offset="85.55555555555554%" stop-color="#6598bf" stop-opacity="1"></stop></linearGradient></defs><g transform="translate(960, 0)"><path d="M0 459C-42.6 460.6 -85.3 462.3 -118.8 443.4C-152.3 424.4 -176.7 384.9 -209 362C-241.3 339.1 -281.6 332.7 -309.7 309.7C-337.8 286.8 -353.7 247.2 -365.5 211C-377.3 174.8 -385 141.8 -399.9 107.2C-414.8 72.5 -436.9 36.3 -459 0L0 0Z" fill="#75b2cf"></path><path d="M0 306C-28.4 307.1 -56.9 308.2 -79.2 295.6C-101.5 283 -117.8 256.6 -139.3 241.3C-160.9 226 -187.8 221.8 -206.5 206.5C-225.2 191.2 -235.8 164.8 -243.6 140.7C-251.5 116.5 -256.7 94.5 -266.6 71.4C-276.5 48.4 -291.3 24.2 -306 0L0 0Z" fill="#aae6eb"></path><path d="M0 153C-14.2 153.5 -28.4 154.1 -39.6 147.8C-50.8 141.5 -58.9 128.3 -69.7 120.7C-80.4 113 -93.9 110.9 -103.2 103.2C-112.6 95.6 -117.9 82.4 -121.8 70.3C-125.8 58.3 -128.3 47.3 -133.3 35.7C-138.3 24.2 -145.6 12.1 -153 0L0 0Z" fill="#cbfffa"></path></g><g transform="translate(0, 540)"><path d="M0 -459C41.9 -460 83.8 -461 118.3 -441.4C152.8 -421.9 179.9 -381.7 200.5 -347.3C221.1 -312.8 235 -284.1 266.6 -266.6C298.2 -249 347.4 -242.7 381.1 -220C414.8 -197.3 433 -158.2 443.4 -118.8C453.8 -79.4 456.4 -39.7 459 0L0 0Z" fill="#75b2cf"></path><path d="M0 -306C27.9 -306.7 55.8 -307.3 78.9 -294.3C101.9 -281.2 120 -254.5 133.7 -231.5C147.4 -208.6 156.7 -189.4 177.7 -177.7C198.8 -166 231.6 -161.8 254 -146.7C276.5 -131.5 288.6 -105.5 295.6 -79.2C302.5 -52.9 304.3 -26.5 306 0L0 0Z" fill="#aae6eb"></path><path d="M0 -153C14 -153.3 27.9 -153.7 39.4 -147.1C50.9 -140.6 60 -127.2 66.8 -115.8C73.7 -104.3 78.3 -94.7 88.9 -88.9C99.4 -83 115.8 -80.9 127 -73.3C138.3 -65.8 144.3 -52.7 147.8 -39.6C151.3 -26.5 152.1 -13.2 153 0L0 0Z" fill="#cbfffa"></path></g></svg>