<svg id="visual" viewBox="0 0 960 540" width="960" height="540" xmlns="http://www.w3.org/2000/svg" xmlns:xlink="http://www.w3.org/1999/xlink" version="1.1"><rect x="0" y="0" width="960" height="540" fill="#6598bf"></rect><defs><linearGradient id="grad1_0" x1="43.8%" y1="0%" x2="100%" y2="100%"><stop offset="14.444444444444446%" stop-color="#6598bf" stop-opacity="1"></stop><stop offset="85.55555555555554%" stop-color="#6598bf" stop-opacity="1"></stop></linearGradient></defs><defs><linearGradient id="grad2_0" x1="0%" y1="0%" x2="56.3%" y2="100%"><stop offset="14.444444444444446%" stop-color="#6598bf" stop-opacity="1"></stop><stop offset="85.55555555555554%" stop-color="#6598bf" stop-opacity="1"></stop></linearGradient></defs><g transform="translate(960, 0)"><path d="M0 459C-63.1 451 -126.3 443.1 -170.3 411.1C-214.3 379.2 -239.2 323.3 -283.5 283.5C-327.9 243.8 -391.6 220.2 -424.1 175.7C-456.5 131.1 -457.8 65.5 -459 0L0 0Z" fill="#cbfffa"></path></g><g transform="translate(0, 540)"><path d="M0 -459C42.4 -415.6 84.7 -372.2 148.5 -358.5C212.2 -344.7 297.4 -360.5 324.6 -324.6C351.7 -288.6 320.8 -200.9 333.5 -138.1C346.3 -75.4 402.6 -37.7 459 0L0 0Z" fill="#cbfffa"></path></g></svg>